<?xml version="1.0" encoding="utf-8" standalone="no"?>
<!DOCTYPE svg PUBLIC "-//W3C//DTD SVG 1.1//EN"
  "http://www.w3.org/Graphics/SVG/1.1/DTD/svg11.dtd">
<!-- Created with matplotlib (https://matplotlib.org/) -->
<svg height="360pt" version="1.1" viewBox="0 0 504 360" width="504pt" xmlns="http://www.w3.org/2000/svg" xmlns:xlink="http://www.w3.org/1999/xlink">
 <defs>
  <style type="text/css">
*{stroke-linecap:butt;stroke-linejoin:round;}
  </style>
 </defs>
 <g id="figure_1">
  <g id="patch_1">
   <path d="M 0 360 
L 504 360 
L 504 0 
L 0 0 
z
" style="fill:none;"/>
  </g>
  <g id="axes_1">
   <g id="patch_2">
    <path d="M 50.168 316.3975 
L 493.2 316.3975 
L 493.2 26.88 
L 50.168 26.88 
z
" style="fill:none;"/>
   </g>
   <g id="matplotlib.axis_1">
    <g id="xtick_1">
     <g id="line2d_1">
      <defs>
       <path d="M 0 0 
L 0 3.5 
" id="m79c3cb4bc5" style="stroke:#000000;stroke-width:0.8;"/>
      </defs>
      <g>
       <use style="stroke:#000000;stroke-width:0.8;" x="70.305818" xlink:href="#m79c3cb4bc5" y="316.3975"/>
      </g>
     </g>
     <g id="text_1">
      <!-- 0.0 -->
      <defs>
       <path d="M 31.78125 66.40625 
Q 24.171875 66.40625 20.328125 58.90625 
Q 16.5 51.421875 16.5 36.375 
Q 16.5 21.390625 20.328125 13.890625 
Q 24.171875 6.390625 31.78125 6.390625 
Q 39.453125 6.390625 43.28125 13.890625 
Q 47.125 21.390625 47.125 36.375 
Q 47.125 51.421875 43.28125 58.90625 
Q 39.453125 66.40625 31.78125 66.40625 
z
M 31.78125 74.21875 
Q 44.046875 74.21875 50.515625 64.515625 
Q 56.984375 54.828125 56.984375 36.375 
Q 56.984375 17.96875 50.515625 8.265625 
Q 44.046875 -1.421875 31.78125 -1.421875 
Q 19.53125 -1.421875 13.0625 8.265625 
Q 6.59375 17.96875 6.59375 36.375 
Q 6.59375 54.828125 13.0625 64.515625 
Q 19.53125 74.21875 31.78125 74.21875 
z
" id="DejaVuSans-48"/>
       <path d="M 10.6875 12.40625 
L 21 12.40625 
L 21 0 
L 10.6875 0 
z
" id="DejaVuSans-46"/>
      </defs>
      <g transform="translate(62.354256 330.995938)scale(0.1 -0.1)">
       <use xlink:href="#DejaVuSans-48"/>
       <use x="63.623047" xlink:href="#DejaVuSans-46"/>
       <use x="95.410156" xlink:href="#DejaVuSans-48"/>
      </g>
     </g>
    </g>
    <g id="xtick_2">
     <g id="line2d_2">
      <g>
       <use style="stroke:#000000;stroke-width:0.8;" x="120.650364" xlink:href="#m79c3cb4bc5" y="316.3975"/>
      </g>
     </g>
     <g id="text_2">
      <!-- 0.5 -->
      <defs>
       <path d="M 10.796875 72.90625 
L 49.515625 72.90625 
L 49.515625 64.59375 
L 19.828125 64.59375 
L 19.828125 46.734375 
Q 21.96875 47.46875 24.109375 47.828125 
Q 26.265625 48.1875 28.421875 48.1875 
Q 40.625 48.1875 47.75 41.5 
Q 54.890625 34.8125 54.890625 23.390625 
Q 54.890625 11.625 47.5625 5.09375 
Q 40.234375 -1.421875 26.90625 -1.421875 
Q 22.3125 -1.421875 17.546875 -0.640625 
Q 12.796875 0.140625 7.71875 1.703125 
L 7.71875 11.625 
Q 12.109375 9.234375 16.796875 8.0625 
Q 21.484375 6.890625 26.703125 6.890625 
Q 35.15625 6.890625 40.078125 11.328125 
Q 45.015625 15.765625 45.015625 23.390625 
Q 45.015625 31 40.078125 35.4375 
Q 35.15625 39.890625 26.703125 39.890625 
Q 22.75 39.890625 18.8125 39.015625 
Q 14.890625 38.140625 10.796875 36.28125 
z
" id="DejaVuSans-53"/>
      </defs>
      <g transform="translate(112.698801 330.995938)scale(0.1 -0.1)">
       <use xlink:href="#DejaVuSans-48"/>
       <use x="63.623047" xlink:href="#DejaVuSans-46"/>
       <use x="95.410156" xlink:href="#DejaVuSans-53"/>
      </g>
     </g>
    </g>
    <g id="xtick_3">
     <g id="line2d_3">
      <g>
       <use style="stroke:#000000;stroke-width:0.8;" x="170.994909" xlink:href="#m79c3cb4bc5" y="316.3975"/>
      </g>
     </g>
     <g id="text_3">
      <!-- 1.0 -->
      <defs>
       <path d="M 12.40625 8.296875 
L 28.515625 8.296875 
L 28.515625 63.921875 
L 10.984375 60.40625 
L 10.984375 69.390625 
L 28.421875 72.90625 
L 38.28125 72.90625 
L 38.28125 8.296875 
L 54.390625 8.296875 
L 54.390625 0 
L 12.40625 0 
z
" id="DejaVuSans-49"/>
      </defs>
      <g transform="translate(163.043347 330.995938)scale(0.1 -0.1)">
       <use xlink:href="#DejaVuSans-49"/>
       <use x="63.623047" xlink:href="#DejaVuSans-46"/>
       <use x="95.410156" xlink:href="#DejaVuSans-48"/>
      </g>
     </g>
    </g>
    <g id="xtick_4">
     <g id="line2d_4">
      <g>
       <use style="stroke:#000000;stroke-width:0.8;" x="221.339455" xlink:href="#m79c3cb4bc5" y="316.3975"/>
      </g>
     </g>
     <g id="text_4">
      <!-- 1.5 -->
      <g transform="translate(213.387892 330.995938)scale(0.1 -0.1)">
       <use xlink:href="#DejaVuSans-49"/>
       <use x="63.623047" xlink:href="#DejaVuSans-46"/>
       <use x="95.410156" xlink:href="#DejaVuSans-53"/>
      </g>
     </g>
    </g>
    <g id="xtick_5">
     <g id="line2d_5">
      <g>
       <use style="stroke:#000000;stroke-width:0.8;" x="271.684" xlink:href="#m79c3cb4bc5" y="316.3975"/>
      </g>
     </g>
     <g id="text_5">
      <!-- 2.0 -->
      <defs>
       <path d="M 19.1875 8.296875 
L 53.609375 8.296875 
L 53.609375 0 
L 7.328125 0 
L 7.328125 8.296875 
Q 12.9375 14.109375 22.625 23.890625 
Q 32.328125 33.6875 34.8125 36.53125 
Q 39.546875 41.84375 41.421875 45.53125 
Q 43.3125 49.21875 43.3125 52.78125 
Q 43.3125 58.59375 39.234375 62.25 
Q 35.15625 65.921875 28.609375 65.921875 
Q 23.96875 65.921875 18.8125 64.3125 
Q 13.671875 62.703125 7.8125 59.421875 
L 7.8125 69.390625 
Q 13.765625 71.78125 18.9375 73 
Q 24.125 74.21875 28.421875 74.21875 
Q 39.75 74.21875 46.484375 68.546875 
Q 53.21875 62.890625 53.21875 53.421875 
Q 53.21875 48.921875 51.53125 44.890625 
Q 49.859375 40.875 45.40625 35.40625 
Q 44.1875 33.984375 37.640625 27.21875 
Q 31.109375 20.453125 19.1875 8.296875 
z
" id="DejaVuSans-50"/>
      </defs>
      <g transform="translate(263.732437 330.995938)scale(0.1 -0.1)">
       <use xlink:href="#DejaVuSans-50"/>
       <use x="63.623047" xlink:href="#DejaVuSans-46"/>
       <use x="95.410156" xlink:href="#DejaVuSans-48"/>
      </g>
     </g>
    </g>
    <g id="xtick_6">
     <g id="line2d_6">
      <g>
       <use style="stroke:#000000;stroke-width:0.8;" x="322.028545" xlink:href="#m79c3cb4bc5" y="316.3975"/>
      </g>
     </g>
     <g id="text_6">
      <!-- 2.5 -->
      <g transform="translate(314.076983 330.995938)scale(0.1 -0.1)">
       <use xlink:href="#DejaVuSans-50"/>
       <use x="63.623047" xlink:href="#DejaVuSans-46"/>
       <use x="95.410156" xlink:href="#DejaVuSans-53"/>
      </g>
     </g>
    </g>
    <g id="xtick_7">
     <g id="line2d_7">
      <g>
       <use style="stroke:#000000;stroke-width:0.8;" x="372.373091" xlink:href="#m79c3cb4bc5" y="316.3975"/>
      </g>
     </g>
     <g id="text_7">
      <!-- 3.0 -->
      <defs>
       <path d="M 40.578125 39.3125 
Q 47.65625 37.796875 51.625 33 
Q 55.609375 28.21875 55.609375 21.1875 
Q 55.609375 10.40625 48.1875 4.484375 
Q 40.765625 -1.421875 27.09375 -1.421875 
Q 22.515625 -1.421875 17.65625 -0.515625 
Q 12.796875 0.390625 7.625 2.203125 
L 7.625 11.71875 
Q 11.71875 9.328125 16.59375 8.109375 
Q 21.484375 6.890625 26.8125 6.890625 
Q 36.078125 6.890625 40.9375 10.546875 
Q 45.796875 14.203125 45.796875 21.1875 
Q 45.796875 27.640625 41.28125 31.265625 
Q 36.765625 34.90625 28.71875 34.90625 
L 20.21875 34.90625 
L 20.21875 43.015625 
L 29.109375 43.015625 
Q 36.375 43.015625 40.234375 45.921875 
Q 44.09375 48.828125 44.09375 54.296875 
Q 44.09375 59.90625 40.109375 62.90625 
Q 36.140625 65.921875 28.71875 65.921875 
Q 24.65625 65.921875 20.015625 65.03125 
Q 15.375 64.15625 9.8125 62.3125 
L 9.8125 71.09375 
Q 15.4375 72.65625 20.34375 73.4375 
Q 25.25 74.21875 29.59375 74.21875 
Q 40.828125 74.21875 47.359375 69.109375 
Q 53.90625 64.015625 53.90625 55.328125 
Q 53.90625 49.265625 50.4375 45.09375 
Q 46.96875 40.921875 40.578125 39.3125 
z
" id="DejaVuSans-51"/>
      </defs>
      <g transform="translate(364.421528 330.995938)scale(0.1 -0.1)">
       <use xlink:href="#DejaVuSans-51"/>
       <use x="63.623047" xlink:href="#DejaVuSans-46"/>
       <use x="95.410156" xlink:href="#DejaVuSans-48"/>
      </g>
     </g>
    </g>
    <g id="xtick_8">
     <g id="line2d_8">
      <g>
       <use style="stroke:#000000;stroke-width:0.8;" x="422.717636" xlink:href="#m79c3cb4bc5" y="316.3975"/>
      </g>
     </g>
     <g id="text_8">
      <!-- 3.5 -->
      <g transform="translate(414.766074 330.995938)scale(0.1 -0.1)">
       <use xlink:href="#DejaVuSans-51"/>
       <use x="63.623047" xlink:href="#DejaVuSans-46"/>
       <use x="95.410156" xlink:href="#DejaVuSans-53"/>
      </g>
     </g>
    </g>
    <g id="xtick_9">
     <g id="line2d_9">
      <g>
       <use style="stroke:#000000;stroke-width:0.8;" x="473.062182" xlink:href="#m79c3cb4bc5" y="316.3975"/>
      </g>
     </g>
     <g id="text_9">
      <!-- 4.0 -->
      <defs>
       <path d="M 37.796875 64.3125 
L 12.890625 25.390625 
L 37.796875 25.390625 
z
M 35.203125 72.90625 
L 47.609375 72.90625 
L 47.609375 25.390625 
L 58.015625 25.390625 
L 58.015625 17.1875 
L 47.609375 17.1875 
L 47.609375 0 
L 37.796875 0 
L 37.796875 17.1875 
L 4.890625 17.1875 
L 4.890625 26.703125 
z
" id="DejaVuSans-52"/>
      </defs>
      <g transform="translate(465.110619 330.995938)scale(0.1 -0.1)">
       <use xlink:href="#DejaVuSans-52"/>
       <use x="63.623047" xlink:href="#DejaVuSans-46"/>
       <use x="95.410156" xlink:href="#DejaVuSans-48"/>
      </g>
     </g>
    </g>
    <g id="text_10">
     <!-- Distance $R$ [a.u.] -->
     <defs>
      <path d="M 19.671875 64.796875 
L 19.671875 8.109375 
L 31.59375 8.109375 
Q 46.6875 8.109375 53.6875 14.9375 
Q 60.6875 21.78125 60.6875 36.53125 
Q 60.6875 51.171875 53.6875 57.984375 
Q 46.6875 64.796875 31.59375 64.796875 
z
M 9.8125 72.90625 
L 30.078125 72.90625 
Q 51.265625 72.90625 61.171875 64.09375 
Q 71.09375 55.28125 71.09375 36.53125 
Q 71.09375 17.671875 61.125 8.828125 
Q 51.171875 0 30.078125 0 
L 9.8125 0 
z
" id="DejaVuSans-68"/>
      <path d="M 9.421875 54.6875 
L 18.40625 54.6875 
L 18.40625 0 
L 9.421875 0 
z
M 9.421875 75.984375 
L 18.40625 75.984375 
L 18.40625 64.59375 
L 9.421875 64.59375 
z
" id="DejaVuSans-105"/>
      <path d="M 44.28125 53.078125 
L 44.28125 44.578125 
Q 40.484375 46.53125 36.375 47.5 
Q 32.28125 48.484375 27.875 48.484375 
Q 21.1875 48.484375 17.84375 46.4375 
Q 14.5 44.390625 14.5 40.28125 
Q 14.5 37.15625 16.890625 35.375 
Q 19.28125 33.59375 26.515625 31.984375 
L 29.59375 31.296875 
Q 39.15625 29.25 43.1875 25.515625 
Q 47.21875 21.78125 47.21875 15.09375 
Q 47.21875 7.46875 41.1875 3.015625 
Q 35.15625 -1.421875 24.609375 -1.421875 
Q 20.21875 -1.421875 15.453125 -0.5625 
Q 10.6875 0.296875 5.421875 2 
L 5.421875 11.28125 
Q 10.40625 8.6875 15.234375 7.390625 
Q 20.0625 6.109375 24.8125 6.109375 
Q 31.15625 6.109375 34.5625 8.28125 
Q 37.984375 10.453125 37.984375 14.40625 
Q 37.984375 18.0625 35.515625 20.015625 
Q 33.0625 21.96875 24.703125 23.78125 
L 21.578125 24.515625 
Q 13.234375 26.265625 9.515625 29.90625 
Q 5.8125 33.546875 5.8125 39.890625 
Q 5.8125 47.609375 11.28125 51.796875 
Q 16.75 56 26.8125 56 
Q 31.78125 56 36.171875 55.265625 
Q 40.578125 54.546875 44.28125 53.078125 
z
" id="DejaVuSans-115"/>
      <path d="M 18.3125 70.21875 
L 18.3125 54.6875 
L 36.8125 54.6875 
L 36.8125 47.703125 
L 18.3125 47.703125 
L 18.3125 18.015625 
Q 18.3125 11.328125 20.140625 9.421875 
Q 21.96875 7.515625 27.59375 7.515625 
L 36.8125 7.515625 
L 36.8125 0 
L 27.59375 0 
Q 17.1875 0 13.234375 3.875 
Q 9.28125 7.765625 9.28125 18.015625 
L 9.28125 47.703125 
L 2.6875 47.703125 
L 2.6875 54.6875 
L 9.28125 54.6875 
L 9.28125 70.21875 
z
" id="DejaVuSans-116"/>
      <path d="M 34.28125 27.484375 
Q 23.390625 27.484375 19.1875 25 
Q 14.984375 22.515625 14.984375 16.5 
Q 14.984375 11.71875 18.140625 8.90625 
Q 21.296875 6.109375 26.703125 6.109375 
Q 34.1875 6.109375 38.703125 11.40625 
Q 43.21875 16.703125 43.21875 25.484375 
L 43.21875 27.484375 
z
M 52.203125 31.203125 
L 52.203125 0 
L 43.21875 0 
L 43.21875 8.296875 
Q 40.140625 3.328125 35.546875 0.953125 
Q 30.953125 -1.421875 24.3125 -1.421875 
Q 15.921875 -1.421875 10.953125 3.296875 
Q 6 8.015625 6 15.921875 
Q 6 25.140625 12.171875 29.828125 
Q 18.359375 34.515625 30.609375 34.515625 
L 43.21875 34.515625 
L 43.21875 35.40625 
Q 43.21875 41.609375 39.140625 45 
Q 35.0625 48.390625 27.6875 48.390625 
Q 23 48.390625 18.546875 47.265625 
Q 14.109375 46.140625 10.015625 43.890625 
L 10.015625 52.203125 
Q 14.9375 54.109375 19.578125 55.046875 
Q 24.21875 56 28.609375 56 
Q 40.484375 56 46.34375 49.84375 
Q 52.203125 43.703125 52.203125 31.203125 
z
" id="DejaVuSans-97"/>
      <path d="M 54.890625 33.015625 
L 54.890625 0 
L 45.90625 0 
L 45.90625 32.71875 
Q 45.90625 40.484375 42.875 44.328125 
Q 39.84375 48.1875 33.796875 48.1875 
Q 26.515625 48.1875 22.3125 43.546875 
Q 18.109375 38.921875 18.109375 30.90625 
L 18.109375 0 
L 9.078125 0 
L 9.078125 54.6875 
L 18.109375 54.6875 
L 18.109375 46.1875 
Q 21.34375 51.125 25.703125 53.5625 
Q 30.078125 56 35.796875 56 
Q 45.21875 56 50.046875 50.171875 
Q 54.890625 44.34375 54.890625 33.015625 
z
" id="DejaVuSans-110"/>
      <path d="M 48.78125 52.59375 
L 48.78125 44.1875 
Q 44.96875 46.296875 41.140625 47.34375 
Q 37.3125 48.390625 33.40625 48.390625 
Q 24.65625 48.390625 19.8125 42.84375 
Q 14.984375 37.3125 14.984375 27.296875 
Q 14.984375 17.28125 19.8125 11.734375 
Q 24.65625 6.203125 33.40625 6.203125 
Q 37.3125 6.203125 41.140625 7.25 
Q 44.96875 8.296875 48.78125 10.40625 
L 48.78125 2.09375 
Q 45.015625 0.34375 40.984375 -0.53125 
Q 36.96875 -1.421875 32.421875 -1.421875 
Q 20.0625 -1.421875 12.78125 6.34375 
Q 5.515625 14.109375 5.515625 27.296875 
Q 5.515625 40.671875 12.859375 48.328125 
Q 20.21875 56 33.015625 56 
Q 37.15625 56 41.109375 55.140625 
Q 45.0625 54.296875 48.78125 52.59375 
z
" id="DejaVuSans-99"/>
      <path d="M 56.203125 29.59375 
L 56.203125 25.203125 
L 14.890625 25.203125 
Q 15.484375 15.921875 20.484375 11.0625 
Q 25.484375 6.203125 34.421875 6.203125 
Q 39.59375 6.203125 44.453125 7.46875 
Q 49.3125 8.734375 54.109375 11.28125 
L 54.109375 2.78125 
Q 49.265625 0.734375 44.1875 -0.34375 
Q 39.109375 -1.421875 33.890625 -1.421875 
Q 20.796875 -1.421875 13.15625 6.1875 
Q 5.515625 13.8125 5.515625 26.8125 
Q 5.515625 40.234375 12.765625 48.109375 
Q 20.015625 56 32.328125 56 
Q 43.359375 56 49.78125 48.890625 
Q 56.203125 41.796875 56.203125 29.59375 
z
M 47.21875 32.234375 
Q 47.125 39.59375 43.09375 43.984375 
Q 39.0625 48.390625 32.421875 48.390625 
Q 24.90625 48.390625 20.390625 44.140625 
Q 15.875 39.890625 15.1875 32.171875 
z
" id="DejaVuSans-101"/>
      <path id="DejaVuSans-32"/>
      <path d="M 25.203125 64.796875 
L 20.21875 38.921875 
L 32.90625 38.921875 
Q 40.375 38.921875 44.984375 43.046875 
Q 49.609375 47.171875 49.609375 53.8125 
Q 49.609375 59.125 46.5 61.953125 
Q 43.40625 64.796875 37.59375 64.796875 
z
M 43.3125 35.015625 
Q 46.4375 34.28125 48.515625 31.390625 
Q 50.59375 28.515625 53.328125 19.921875 
L 59.515625 0 
L 49.125 0 
L 43.40625 18.703125 
Q 41.21875 25.921875 38.328125 28.359375 
Q 35.453125 30.8125 29.5 30.8125 
L 18.609375 30.8125 
L 12.59375 0 
L 2.6875 0 
L 16.890625 72.90625 
L 39.109375 72.90625 
Q 49.21875 72.90625 54.609375 68.328125 
Q 60.015625 63.765625 60.015625 55.171875 
Q 60.015625 47.5625 55.421875 41.984375 
Q 50.828125 36.421875 43.3125 35.015625 
z
" id="DejaVuSans-Oblique-82"/>
      <path d="M 8.59375 75.984375 
L 29.296875 75.984375 
L 29.296875 69 
L 17.578125 69 
L 17.578125 -6.203125 
L 29.296875 -6.203125 
L 29.296875 -13.1875 
L 8.59375 -13.1875 
z
" id="DejaVuSans-91"/>
      <path d="M 8.5 21.578125 
L 8.5 54.6875 
L 17.484375 54.6875 
L 17.484375 21.921875 
Q 17.484375 14.15625 20.5 10.265625 
Q 23.53125 6.390625 29.59375 6.390625 
Q 36.859375 6.390625 41.078125 11.03125 
Q 45.3125 15.671875 45.3125 23.6875 
L 45.3125 54.6875 
L 54.296875 54.6875 
L 54.296875 0 
L 45.3125 0 
L 45.3125 8.40625 
Q 42.046875 3.421875 37.71875 1 
Q 33.40625 -1.421875 27.6875 -1.421875 
Q 18.265625 -1.421875 13.375 4.4375 
Q 8.5 10.296875 8.5 21.578125 
z
M 31.109375 56 
z
" id="DejaVuSans-117"/>
      <path d="M 30.421875 75.984375 
L 30.421875 -13.1875 
L 9.71875 -13.1875 
L 9.71875 -6.203125 
L 21.390625 -6.203125 
L 21.390625 69 
L 9.71875 69 
L 9.71875 75.984375 
z
" id="DejaVuSans-93"/>
     </defs>
     <g transform="translate(229.834 344.674062)scale(0.1 -0.1)">
      <use transform="translate(0 0.015625)" xlink:href="#DejaVuSans-68"/>
      <use transform="translate(77.001953 0.015625)" xlink:href="#DejaVuSans-105"/>
      <use transform="translate(104.785156 0.015625)" xlink:href="#DejaVuSans-115"/>
      <use transform="translate(156.884766 0.015625)" xlink:href="#DejaVuSans-116"/>
      <use transform="translate(196.09375 0.015625)" xlink:href="#DejaVuSans-97"/>
      <use transform="translate(257.373047 0.015625)" xlink:href="#DejaVuSans-110"/>
      <use transform="translate(320.751953 0.015625)" xlink:href="#DejaVuSans-99"/>
      <use transform="translate(375.732422 0.015625)" xlink:href="#DejaVuSans-101"/>
      <use transform="translate(437.255859 0.015625)" xlink:href="#DejaVuSans-32"/>
      <use transform="translate(469.042969 0.015625)" xlink:href="#DejaVuSans-Oblique-82"/>
      <use transform="translate(538.525391 0.015625)" xlink:href="#DejaVuSans-32"/>
      <use transform="translate(570.3125 0.015625)" xlink:href="#DejaVuSans-91"/>
      <use transform="translate(609.326172 0.015625)" xlink:href="#DejaVuSans-97"/>
      <use transform="translate(670.605469 0.015625)" xlink:href="#DejaVuSans-46"/>
      <use transform="translate(702.392578 0.015625)" xlink:href="#DejaVuSans-117"/>
      <use transform="translate(765.771484 0.015625)" xlink:href="#DejaVuSans-46"/>
      <use transform="translate(797.558594 0.015625)" xlink:href="#DejaVuSans-93"/>
     </g>
    </g>
   </g>
   <g id="matplotlib.axis_2">
    <g id="ytick_1">
     <g id="line2d_10">
      <defs>
       <path d="M 0 0 
L -3.5 0 
" id="mc81beeb3bd" style="stroke:#000000;stroke-width:0.8;"/>
      </defs>
      <g>
       <use style="stroke:#000000;stroke-width:0.8;" x="50.168" xlink:href="#mc81beeb3bd" y="303.237614"/>
      </g>
     </g>
     <g id="text_11">
      <!-- 0.0 -->
      <g transform="translate(27.264875 307.036832)scale(0.1 -0.1)">
       <use xlink:href="#DejaVuSans-48"/>
       <use x="63.623047" xlink:href="#DejaVuSans-46"/>
       <use x="95.410156" xlink:href="#DejaVuSans-48"/>
      </g>
     </g>
    </g>
    <g id="ytick_2">
     <g id="line2d_11">
      <g>
       <use style="stroke:#000000;stroke-width:0.8;" x="50.168" xlink:href="#mc81beeb3bd" y="250.598068"/>
      </g>
     </g>
     <g id="text_12">
      <!-- 0.2 -->
      <g transform="translate(27.264875 254.397287)scale(0.1 -0.1)">
       <use xlink:href="#DejaVuSans-48"/>
       <use x="63.623047" xlink:href="#DejaVuSans-46"/>
       <use x="95.410156" xlink:href="#DejaVuSans-50"/>
      </g>
     </g>
    </g>
    <g id="ytick_3">
     <g id="line2d_12">
      <g>
       <use style="stroke:#000000;stroke-width:0.8;" x="50.168" xlink:href="#mc81beeb3bd" y="197.958523"/>
      </g>
     </g>
     <g id="text_13">
      <!-- 0.4 -->
      <g transform="translate(27.264875 201.757741)scale(0.1 -0.1)">
       <use xlink:href="#DejaVuSans-48"/>
       <use x="63.623047" xlink:href="#DejaVuSans-46"/>
       <use x="95.410156" xlink:href="#DejaVuSans-52"/>
      </g>
     </g>
    </g>
    <g id="ytick_4">
     <g id="line2d_13">
      <g>
       <use style="stroke:#000000;stroke-width:0.8;" x="50.168" xlink:href="#mc81beeb3bd" y="145.318977"/>
      </g>
     </g>
     <g id="text_14">
      <!-- 0.6 -->
      <defs>
       <path d="M 33.015625 40.375 
Q 26.375 40.375 22.484375 35.828125 
Q 18.609375 31.296875 18.609375 23.390625 
Q 18.609375 15.53125 22.484375 10.953125 
Q 26.375 6.390625 33.015625 6.390625 
Q 39.65625 6.390625 43.53125 10.953125 
Q 47.40625 15.53125 47.40625 23.390625 
Q 47.40625 31.296875 43.53125 35.828125 
Q 39.65625 40.375 33.015625 40.375 
z
M 52.59375 71.296875 
L 52.59375 62.3125 
Q 48.875 64.0625 45.09375 64.984375 
Q 41.3125 65.921875 37.59375 65.921875 
Q 27.828125 65.921875 22.671875 59.328125 
Q 17.53125 52.734375 16.796875 39.40625 
Q 19.671875 43.65625 24.015625 45.921875 
Q 28.375 48.1875 33.59375 48.1875 
Q 44.578125 48.1875 50.953125 41.515625 
Q 57.328125 34.859375 57.328125 23.390625 
Q 57.328125 12.15625 50.6875 5.359375 
Q 44.046875 -1.421875 33.015625 -1.421875 
Q 20.359375 -1.421875 13.671875 8.265625 
Q 6.984375 17.96875 6.984375 36.375 
Q 6.984375 53.65625 15.1875 63.9375 
Q 23.390625 74.21875 37.203125 74.21875 
Q 40.921875 74.21875 44.703125 73.484375 
Q 48.484375 72.75 52.59375 71.296875 
z
" id="DejaVuSans-54"/>
      </defs>
      <g transform="translate(27.264875 149.118196)scale(0.1 -0.1)">
       <use xlink:href="#DejaVuSans-48"/>
       <use x="63.623047" xlink:href="#DejaVuSans-46"/>
       <use x="95.410156" xlink:href="#DejaVuSans-54"/>
      </g>
     </g>
    </g>
    <g id="ytick_5">
     <g id="line2d_14">
      <g>
       <use style="stroke:#000000;stroke-width:0.8;" x="50.168" xlink:href="#mc81beeb3bd" y="92.679432"/>
      </g>
     </g>
     <g id="text_15">
      <!-- 0.8 -->
      <defs>
       <path d="M 31.78125 34.625 
Q 24.75 34.625 20.71875 30.859375 
Q 16.703125 27.09375 16.703125 20.515625 
Q 16.703125 13.921875 20.71875 10.15625 
Q 24.75 6.390625 31.78125 6.390625 
Q 38.8125 6.390625 42.859375 10.171875 
Q 46.921875 13.96875 46.921875 20.515625 
Q 46.921875 27.09375 42.890625 30.859375 
Q 38.875 34.625 31.78125 34.625 
z
M 21.921875 38.8125 
Q 15.578125 40.375 12.03125 44.71875 
Q 8.5 49.078125 8.5 55.328125 
Q 8.5 64.0625 14.71875 69.140625 
Q 20.953125 74.21875 31.78125 74.21875 
Q 42.671875 74.21875 48.875 69.140625 
Q 55.078125 64.0625 55.078125 55.328125 
Q 55.078125 49.078125 51.53125 44.71875 
Q 48 40.375 41.703125 38.8125 
Q 48.828125 37.15625 52.796875 32.3125 
Q 56.78125 27.484375 56.78125 20.515625 
Q 56.78125 9.90625 50.3125 4.234375 
Q 43.84375 -1.421875 31.78125 -1.421875 
Q 19.734375 -1.421875 13.25 4.234375 
Q 6.78125 9.90625 6.78125 20.515625 
Q 6.78125 27.484375 10.78125 32.3125 
Q 14.796875 37.15625 21.921875 38.8125 
z
M 18.3125 54.390625 
Q 18.3125 48.734375 21.84375 45.5625 
Q 25.390625 42.390625 31.78125 42.390625 
Q 38.140625 42.390625 41.71875 45.5625 
Q 45.3125 48.734375 45.3125 54.390625 
Q 45.3125 60.0625 41.71875 63.234375 
Q 38.140625 66.40625 31.78125 66.40625 
Q 25.390625 66.40625 21.84375 63.234375 
Q 18.3125 60.0625 18.3125 54.390625 
z
" id="DejaVuSans-56"/>
      </defs>
      <g transform="translate(27.264875 96.478651)scale(0.1 -0.1)">
       <use xlink:href="#DejaVuSans-48"/>
       <use x="63.623047" xlink:href="#DejaVuSans-46"/>
       <use x="95.410156" xlink:href="#DejaVuSans-56"/>
      </g>
     </g>
    </g>
    <g id="ytick_6">
     <g id="line2d_15">
      <g>
       <use style="stroke:#000000;stroke-width:0.8;" x="50.168" xlink:href="#mc81beeb3bd" y="40.039886"/>
      </g>
     </g>
     <g id="text_16">
      <!-- 1.0 -->
      <g transform="translate(27.264875 43.839105)scale(0.1 -0.1)">
       <use xlink:href="#DejaVuSans-49"/>
       <use x="63.623047" xlink:href="#DejaVuSans-46"/>
       <use x="95.410156" xlink:href="#DejaVuSans-48"/>
      </g>
     </g>
    </g>
    <g id="text_17">
     <!-- $G_2(R)$ -->
     <defs>
      <path d="M 54.59375 10.890625 
L 58.40625 29.984375 
L 42.1875 29.984375 
L 43.703125 38.09375 
L 69.578125 38.09375 
L 63.28125 6 
Q 56.78125 2.4375 49.109375 0.5 
Q 41.453125 -1.421875 33.6875 -1.421875 
Q 19.96875 -1.421875 12.234375 6.1875 
Q 4.5 13.8125 4.5 27.390625 
Q 4.5 38.671875 9.203125 48.84375 
Q 13.921875 59.03125 22.21875 65.828125 
Q 27.4375 70.0625 33.640625 72.140625 
Q 39.84375 74.21875 47.40625 74.21875 
Q 54.25 74.21875 60.515625 72.484375 
Q 66.796875 70.75 72.515625 67.28125 
L 70.515625 56.78125 
Q 66.109375 61.375 60.203125 63.796875 
Q 54.296875 66.21875 47.609375 66.21875 
Q 39.84375 66.21875 33.9375 63.25 
Q 28.03125 60.296875 23.390625 54.109375 
Q 19.4375 48.828125 17.15625 41.671875 
Q 14.890625 34.515625 14.890625 27.09375 
Q 14.890625 16.890625 20.109375 11.734375 
Q 25.34375 6.59375 35.6875 6.59375 
Q 40.875 6.59375 45.703125 7.6875 
Q 50.53125 8.796875 54.59375 10.890625 
z
" id="DejaVuSans-Oblique-71"/>
      <path d="M 31 75.875 
Q 24.46875 64.65625 21.28125 53.65625 
Q 18.109375 42.671875 18.109375 31.390625 
Q 18.109375 20.125 21.3125 9.0625 
Q 24.515625 -2 31 -13.1875 
L 23.1875 -13.1875 
Q 15.875 -1.703125 12.234375 9.375 
Q 8.59375 20.453125 8.59375 31.390625 
Q 8.59375 42.28125 12.203125 53.3125 
Q 15.828125 64.359375 23.1875 75.875 
z
" id="DejaVuSans-40"/>
      <path d="M 8.015625 75.875 
L 15.828125 75.875 
Q 23.140625 64.359375 26.78125 53.3125 
Q 30.421875 42.28125 30.421875 31.390625 
Q 30.421875 20.453125 26.78125 9.375 
Q 23.140625 -1.703125 15.828125 -13.1875 
L 8.015625 -13.1875 
Q 14.5 -2 17.703125 9.0625 
Q 20.90625 20.125 20.90625 31.390625 
Q 20.90625 42.671875 17.703125 53.65625 
Q 14.5 64.65625 8.015625 75.875 
z
" id="DejaVuSans-41"/>
     </defs>
     <g transform="translate(21.185188 185.28875)rotate(-90)scale(0.1 -0.1)">
      <use transform="translate(0 0.125)" xlink:href="#DejaVuSans-Oblique-71"/>
      <use transform="translate(77.490234 -16.28125)scale(0.7)" xlink:href="#DejaVuSans-50"/>
      <use transform="translate(124.760742 0.125)" xlink:href="#DejaVuSans-40"/>
      <use transform="translate(163.774414 0.125)" xlink:href="#DejaVuSans-Oblique-82"/>
      <use transform="translate(233.256836 0.125)" xlink:href="#DejaVuSans-41"/>
     </g>
    </g>
   </g>
   <g id="line2d_16">
    <path clip-path="url(#pb3449043be)" d="M 70.305818 40.039886 
L 70.708978 40.102014 
L 71.112137 40.288308 
L 71.918456 41.032166 
L 72.724775 42.267257 
L 73.531094 43.986617 
L 74.337413 46.180588 
L 75.546892 50.33394 
L 76.756371 55.475262 
L 77.965849 61.541315 
L 79.578487 70.93961 
L 81.191125 81.652766 
L 83.206923 96.559493 
L 86.02904 119.440681 
L 95.704868 200.116557 
L 98.123825 217.70273 
L 100.139623 230.98833 
L 102.155421 242.926581 
L 104.171218 253.483062 
L 106.187016 262.673537 
L 107.799654 269.079263 
L 109.412292 274.689948 
L 111.02493 279.558652 
L 112.637568 283.74487 
L 114.250206 287.311805 
L 115.862844 290.32399 
L 117.475482 292.845286 
L 119.08812 294.937282 
L 120.700759 296.658067 
L 122.313397 298.061375 
L 123.926035 299.196042 
L 125.941832 300.302639 
L 127.95763 301.131268 
L 130.376587 301.844876 
L 133.198704 302.396354 
L 136.42398 302.77799 
L 140.858735 303.047075 
L 147.712447 303.193949 
L 163.838828 303.236818 
L 473.062182 303.237614 
L 473.062182 303.237614 
" style="fill:none;stroke:#1f77b4;stroke-linecap:square;stroke-width:1.5;"/>
   </g>
   <g id="line2d_17">
    <path clip-path="url(#pb3449043be)" d="M 70.305818 288.436918 
L 71.918456 285.093665 
L 73.531094 281.162619 
L 75.143732 276.582007 
L 76.756371 271.293145 
L 78.369009 265.243011 
L 79.981647 258.387118 
L 81.594285 250.692578 
L 83.610082 239.869108 
L 85.62588 227.712957 
L 87.641678 214.281145 
L 90.060635 196.647485 
L 92.882751 174.40796 
L 102.55858 96.27307 
L 104.574378 82.478232 
L 106.187016 72.750794 
L 107.799654 64.406177 
L 109.009132 59.163346 
L 110.218611 54.86336 
L 111.42809 51.559645 
L 112.234409 49.931655 
L 113.040728 48.774307 
L 113.847047 48.094136 
L 114.250206 47.934302 
L 114.653366 47.894994 
L 115.056525 47.976269 
L 115.862844 48.499941 
L 116.669163 49.50236 
L 117.475482 50.977871 
L 118.281801 52.918176 
L 119.08812 55.312409 
L 120.297599 59.725068 
L 121.507078 65.073804 
L 123.119716 73.547117 
L 124.732354 83.386872 
L 126.748151 97.29647 
L 129.167109 115.776573 
L 132.795544 145.544123 
L 138.036618 188.422776 
L 140.858735 209.605444 
L 143.277692 226.058158 
L 145.293489 238.385882 
L 147.309287 249.384572 
L 149.325085 259.043194 
L 150.937723 265.826699 
L 152.550361 271.807588 
L 154.162999 277.031266 
L 155.775637 281.551413 
L 157.388275 285.42714 
L 159.000913 288.720432 
L 160.613551 291.493943 
L 162.226189 293.809172 
L 163.838828 295.725013 
L 165.451466 297.296678 
L 167.064104 298.574959 
L 168.676742 299.605784 
L 170.692539 300.608138 
L 172.708337 301.35623 
L 175.127294 301.998167 
L 177.949411 302.492158 
L 181.577847 302.862871 
L 186.415761 303.096494 
L 194.075792 303.211463 
L 217.459044 303.237561 
L 473.062182 303.237614 
L 473.062182 303.237614 
" style="fill:none;stroke:#ff7f0e;stroke-linecap:square;stroke-width:1.5;"/>
   </g>
   <g id="line2d_18">
    <path clip-path="url(#pb3449043be)" d="M 70.305818 303.234982 
L 86.835359 303.113225 
L 92.479592 302.850701 
L 96.108028 302.47341 
L 98.930144 301.973946 
L 101.349101 301.328397 
L 103.364899 300.579538 
L 105.380697 299.580384 
L 106.993335 298.556723 
L 108.605973 297.291636 
L 110.218611 295.741498 
L 111.831249 293.858373 
L 113.443887 291.590528 
L 115.056525 288.883213 
L 116.669163 285.679781 
L 118.281801 281.923133 
L 119.89444 277.557525 
L 121.507078 272.530703 
L 123.119716 266.796346 
L 124.732354 260.316748 
L 126.748151 251.130589 
L 128.763949 240.721056 
L 130.779747 229.112628 
L 133.198704 213.709953 
L 136.02082 194.023386 
L 139.649256 166.939423 
L 144.89033 127.803214 
L 147.309287 111.365419 
L 149.325085 99.166354 
L 150.937723 90.667194 
L 152.550361 83.482328 
L 153.759839 79.050231 
L 154.969318 75.499706 
L 155.775637 73.644825 
L 156.581956 72.212115 
L 157.388275 71.20965 
L 158.194594 70.643106 
L 159.000913 70.515702 
L 159.807232 70.828172 
L 160.613551 71.578756 
L 161.41987 72.763221 
L 162.226189 74.374894 
L 163.032509 76.404732 
L 164.241987 80.208153 
L 165.451466 84.879097 
L 166.660944 90.360176 
L 168.273582 98.81284 
L 169.88622 108.409771 
L 171.902018 121.716945 
L 174.724135 142.068039 
L 183.996804 210.616269 
L 186.415761 226.31159 
L 188.431558 238.191371 
L 190.447356 248.883603 
L 192.463154 258.352648 
L 194.478951 266.608234 
L 196.091589 272.369444 
L 197.704228 277.420866 
L 199.316866 281.808646 
L 200.929504 285.584973 
L 202.542142 288.805612 
L 204.15478 291.527758 
L 205.767418 293.808208 
L 207.380056 295.701898 
L 208.992694 297.260771 
L 210.605332 298.532979 
L 212.21797 299.562368 
L 214.233768 300.567039 
L 216.249566 301.319936 
L 218.668523 301.968838 
L 221.490639 302.47074 
L 224.715916 302.818372 
L 229.15067 303.063704 
L 236.004382 303.197741 
L 253.340242 303.237093 
L 473.062182 303.237614 
L 473.062182 303.237614 
" style="fill:none;stroke:#2ca02c;stroke-linecap:square;stroke-width:1.5;"/>
   </g>
   <g id="line2d_19">
    <path clip-path="url(#pb3449043be)" d="M 70.305818 303.237614 
L 131.182906 303.12921 
L 136.82714 302.90086 
L 140.858735 302.52261 
L 143.680851 302.060023 
L 146.099809 301.464562 
L 148.115606 300.776211 
L 150.131404 299.860759 
L 152.147201 298.659251 
L 153.759839 297.44635 
L 155.372478 295.967324 
L 156.985116 294.179347 
L 158.597754 292.0367 
L 160.210392 289.491608 
L 161.82303 286.495351 
L 163.435668 282.999681 
L 165.048306 278.958528 
L 166.660944 274.329982 
L 168.273582 269.078507 
L 169.88622 263.177324 
L 171.902018 254.864754 
L 173.917816 245.513974 
L 175.933613 235.165456 
L 178.35257 221.555276 
L 181.174687 204.352639 
L 191.253675 141.298069 
L 193.269473 130.741768 
L 194.882111 123.343134 
L 196.494749 117.04322 
L 197.704228 113.121621 
L 198.913706 109.943093 
L 200.123185 107.547383 
L 200.929504 106.400501 
L 201.735823 105.62169 
L 202.542142 105.215381 
L 203.348461 105.183897 
L 204.15478 105.527436 
L 204.961099 106.244066 
L 205.767418 107.329745 
L 206.573737 108.778357 
L 207.380056 110.581773 
L 208.589535 113.929617 
L 209.799013 118.01102 
L 211.008492 122.775862 
L 212.62113 130.091692 
L 214.636927 140.565233 
L 217.055885 154.643825 
L 220.281161 174.9898 
L 226.731713 216.02201 
L 229.55383 232.321865 
L 231.972787 244.935102 
L 233.988585 254.356918 
L 236.004382 262.739797 
L 238.02018 270.081092 
L 239.632818 275.224253 
L 241.245456 279.748864 
L 242.858094 283.691859 
L 244.470732 287.096172 
L 246.08337 290.008555 
L 247.696008 292.477627 
L 249.308646 294.552209 
L 250.921285 296.279951 
L 252.533923 297.706265 
L 254.146561 298.873537 
L 256.162358 300.027144 
L 258.178156 300.903746 
L 260.597113 301.670641 
L 263.01607 302.203426 
L 266.241346 302.658992 
L 270.272942 302.969384 
L 275.917175 303.15323 
L 286.802482 303.23065 
L 358.968037 303.237614 
L 473.062182 303.237614 
L 473.062182 303.237614 
" style="fill:none;stroke:#d62728;stroke-linecap:square;stroke-width:1.5;"/>
   </g>
   <g id="line2d_20">
    <path clip-path="url(#pb3449043be)" d="M 70.305818 303.237614 
L 176.336773 303.132877 
L 182.384166 302.891769 
L 186.415761 302.514767 
L 189.641037 301.977592 
L 192.059994 301.363733 
L 194.075792 300.66293 
L 196.091589 299.741666 
L 198.107387 298.546626 
L 199.720025 297.352954 
L 201.332663 295.911272 
L 202.945301 294.185265 
L 204.557939 292.137092 
L 206.170577 289.728302 
L 207.783216 286.920985 
L 209.395854 283.679154 
L 211.008492 279.970338 
L 212.62113 275.767357 
L 214.636927 269.789095 
L 216.652725 262.989702 
L 218.668523 255.378863 
L 221.08748 245.237893 
L 223.506437 234.138232 
L 226.731713 218.254443 
L 233.585425 183.98129 
L 236.004382 173.164252 
L 238.02018 165.218787 
L 239.632818 159.746609 
L 240.842296 156.235763 
L 242.051775 153.281712 
L 243.261254 150.921195 
L 244.067573 149.692249 
L 244.873892 148.747419 
L 245.680211 148.092078 
L 246.48653 147.729975 
L 247.292849 147.6632 
L 248.099168 147.892159 
L 248.905487 148.415575 
L 249.711806 149.230497 
L 250.518125 150.332327 
L 251.727604 152.509042 
L 252.937082 155.28963 
L 254.146561 158.639499 
L 255.759199 163.919658 
L 257.371837 170.025438 
L 259.387635 178.624844 
L 261.806592 190.008125 
L 265.838187 210.326333 
L 270.272942 232.495563 
L 273.095058 245.52265 
L 275.514015 255.655501 
L 277.529813 263.25496 
L 279.545611 270.039427 
L 281.561408 275.999936 
L 283.577206 281.155694 
L 285.189844 284.728194 
L 286.802482 287.84099 
L 288.41512 290.527956 
L 290.027758 292.826033 
L 291.640396 294.773668 
L 293.253034 296.409492 
L 294.865673 297.771224 
L 296.88147 299.142496 
L 298.897268 300.206333 
L 300.913065 301.020555 
L 303.332023 301.738346 
L 306.154139 302.308275 
L 309.379415 302.714892 
L 313.411011 302.993786 
L 319.458403 303.166645 
L 331.553189 303.233275 
L 443.228377 303.237614 
L 473.062182 303.237614 
L 473.062182 303.237614 
" style="fill:none;stroke:#9467bd;stroke-linecap:square;stroke-width:1.5;"/>
   </g>
   <g id="line2d_21">
    <path clip-path="url(#pb3449043be)" d="M 70.305818 303.237614 
L 222.296958 303.127112 
L 228.344351 302.884313 
L 232.375946 302.515014 
L 235.601223 301.999804 
L 238.423339 301.304037 
L 240.842296 300.45566 
L 242.858094 299.519422 
L 244.873892 298.326803 
L 246.889689 296.828277 
L 248.502327 295.373969 
L 250.114966 293.662808 
L 251.727604 291.667684 
L 253.340242 289.362854 
L 254.95288 286.725085 
L 256.968677 282.93052 
L 258.984475 278.559443 
L 261.000273 273.602417 
L 263.01607 268.070972 
L 265.435027 260.72774 
L 268.257144 251.338915 
L 272.288739 236.960695 
L 277.126654 219.782137 
L 279.545611 211.972763 
L 281.561408 206.192902 
L 283.174046 202.179643 
L 284.786685 198.802317 
L 285.996163 196.731587 
L 287.205642 195.086397 
L 288.41512 193.887681 
L 289.221439 193.344433 
L 290.027758 193.009735 
L 290.834077 192.885541 
L 291.640396 192.9726 
L 292.446715 193.27045 
L 293.253034 193.777422 
L 294.059354 194.490653 
L 295.268832 195.938115 
L 296.478311 197.822035 
L 297.687789 200.118802 
L 299.300427 203.773605 
L 300.913065 208.032532 
L 302.928863 214.068913 
L 305.34782 222.105602 
L 308.976256 235.070859 
L 314.21733 253.753881 
L 317.039446 262.974116 
L 319.458403 270.125701 
L 321.474201 275.475904 
L 323.489999 280.241064 
L 325.505796 284.417183 
L 327.521594 288.020141 
L 329.537392 291.081434 
L 331.15003 293.168956 
L 332.762668 294.962476 
L 334.375306 296.489142 
L 336.391103 298.064581 
L 338.406901 299.320155 
L 340.422699 300.306873 
L 342.438496 301.071615 
L 344.857453 301.75482 
L 347.67957 302.305614 
L 350.904846 302.705283 
L 355.339601 303.003484 
L 361.790153 303.17388 
L 374.691258 303.234388 
L 473.062182 303.237614 
L 473.062182 303.237614 
" style="fill:none;stroke:#8c564b;stroke-linecap:square;stroke-width:1.5;"/>
   </g>
   <g id="line2d_22">
    <path clip-path="url(#pb3449043be)" d="M 70.305818 303.237614 
L 268.257144 303.132001 
L 274.707696 302.887621 
L 279.142451 302.49457 
L 282.367727 301.998722 
L 285.189844 301.347875 
L 287.608801 300.57398 
L 290.027758 299.547275 
L 292.043556 298.458561 
L 294.059354 297.122323 
L 296.075151 295.505648 
L 298.090949 293.578048 
L 300.106746 291.313731 
L 302.122544 288.694162 
L 304.138342 285.710748 
L 306.154139 282.367485 
L 308.573096 277.908442 
L 311.395213 272.175761 
L 315.023649 264.234934 
L 320.667882 251.812276 
L 323.086839 246.995602 
L 325.102637 243.439072 
L 326.715275 240.97714 
L 328.327913 238.914059 
L 329.537392 237.656454 
L 330.74687 236.665333 
L 331.956349 235.953577 
L 333.165827 235.530575 
L 334.375306 235.402012 
L 335.584784 235.569746 
L 336.794263 236.031762 
L 338.003742 236.782212 
L 339.21322 237.811541 
L 340.422699 239.106684 
L 342.035337 241.218444 
L 343.647975 243.727031 
L 345.663772 247.338218 
L 348.08273 252.21365 
L 351.308006 259.281726 
L 357.758558 273.552525 
L 360.580675 279.209368 
L 362.999632 283.574795 
L 365.01543 286.825591 
L 367.031227 289.708017 
L 369.047025 292.222159 
L 371.062822 294.380289 
L 373.07862 296.2041 
L 375.094418 297.72195 
L 377.110215 298.966271 
L 379.126013 299.97131 
L 381.54497 300.909537 
L 383.963927 301.608318 
L 386.786044 302.187848 
L 390.01132 302.621655 
L 394.042915 302.935659 
L 399.687149 303.135656 
L 409.766137 303.226296 
L 457.74212 303.237614 
L 473.062182 303.237614 
L 473.062182 303.237614 
" style="fill:none;stroke:#e377c2;stroke-linecap:square;stroke-width:1.5;"/>
   </g>
   <g id="line2d_23">
    <path clip-path="url(#pb3449043be)" d="M 70.305818 303.237614 
L 315.426808 303.126766 
L 322.28052 302.870741 
L 326.715275 302.498797 
L 330.343711 301.983434 
L 333.568987 301.295268 
L 336.391103 300.461259 
L 338.810061 299.53744 
L 341.229018 298.391926 
L 343.647975 297.002211 
L 346.066932 295.353766 
L 348.485889 293.4435 
L 351.308006 290.900452 
L 354.533282 287.64228 
L 359.371196 282.344275 
L 363.805951 277.575335 
L 366.224908 275.246819 
L 368.240706 273.554537 
L 370.256503 272.1498 
L 371.869142 271.267092 
L 373.48178 270.621641 
L 375.094418 270.229186 
L 376.707056 270.099662 
L 378.319694 270.236782 
L 379.932332 270.637873 
L 381.54497 271.293953 
L 383.157608 272.19007 
L 385.173406 273.616301 
L 387.189203 275.335741 
L 389.608161 277.703888 
L 392.833437 281.197773 
L 400.493468 289.643659 
L 403.315584 292.394437 
L 405.734541 294.489299 
L 408.153499 296.315487 
L 410.572456 297.867088 
L 412.991413 299.152906 
L 415.41037 300.192771 
L 417.829327 301.013753 
L 420.651444 301.736118 
L 423.87672 302.312385 
L 427.505156 302.72521 
L 432.34307 303.022331 
L 439.196782 303.184236 
L 453.710525 303.236345 
L 473.062182 303.237614 
L 473.062182 303.237614 
" style="fill:none;stroke:#7f7f7f;stroke-linecap:square;stroke-width:1.5;"/>
   </g>
   <g id="line2d_24">
    <path clip-path="url(#pb3449043be)" d="M 70.305818 303.237614 
L 363.402792 303.131413 
L 371.062822 302.882059 
L 376.303896 302.505088 
L 380.738651 301.974093 
L 384.770246 301.271088 
L 388.801841 300.329306 
L 392.833437 299.15229 
L 398.074511 297.358294 
L 405.734541 294.713228 
L 408.959818 293.832356 
L 411.781934 293.277805 
L 414.200891 293.000576 
L 416.619849 292.926661 
L 419.038806 293.063518 
L 421.457763 293.40613 
L 424.27988 294.042229 
L 427.505156 295.02338 
L 431.93991 296.651235 
L 440.003101 299.662508 
L 443.631537 300.773671 
L 447.259972 301.652081 
L 450.888408 302.293819 
L 454.920003 302.7621 
L 459.354758 303.0495 
L 465.402151 303.205099 
L 473.062182 303.237614 
L 473.062182 303.237614 
" style="fill:none;stroke:#bcbd22;stroke-linecap:square;stroke-width:1.5;"/>
   </g>
   <g id="line2d_25">
    <path clip-path="url(#pb3449043be)" d="M 70.305818 303.237614 
L 415.41037 303.127428 
L 426.698837 302.850057 
L 447.259972 302.2173 
L 453.307365 302.347726 
L 460.967396 302.763368 
L 469.433746 303.185897 
L 473.062182 303.237614 
L 473.062182 303.237614 
" style="fill:none;stroke:#17becf;stroke-linecap:square;stroke-width:1.5;"/>
   </g>
   <g id="patch_3">
    <path d="M 50.168 316.3975 
L 50.168 26.88 
" style="fill:none;stroke:#000000;stroke-linecap:square;stroke-linejoin:miter;stroke-width:0.8;"/>
   </g>
   <g id="patch_4">
    <path d="M 493.2 316.3975 
L 493.2 26.88 
" style="fill:none;stroke:#000000;stroke-linecap:square;stroke-linejoin:miter;stroke-width:0.8;"/>
   </g>
   <g id="patch_5">
    <path d="M 50.168 316.3975 
L 493.2 316.3975 
" style="fill:none;stroke:#000000;stroke-linecap:square;stroke-linejoin:miter;stroke-width:0.8;"/>
   </g>
   <g id="patch_6">
    <path d="M 50.168 26.88 
L 493.2 26.88 
" style="fill:none;stroke:#000000;stroke-linecap:square;stroke-linejoin:miter;stroke-width:0.8;"/>
   </g>
   <g id="text_18">
    <!-- Exemplary Visualization of $G_2$ Functions -->
    <defs>
     <path d="M 9.8125 72.90625 
L 55.90625 72.90625 
L 55.90625 64.59375 
L 19.671875 64.59375 
L 19.671875 43.015625 
L 54.390625 43.015625 
L 54.390625 34.71875 
L 19.671875 34.71875 
L 19.671875 8.296875 
L 56.78125 8.296875 
L 56.78125 0 
L 9.8125 0 
z
" id="DejaVuSans-69"/>
     <path d="M 54.890625 54.6875 
L 35.109375 28.078125 
L 55.90625 0 
L 45.3125 0 
L 29.390625 21.484375 
L 13.484375 0 
L 2.875 0 
L 24.125 28.609375 
L 4.6875 54.6875 
L 15.28125 54.6875 
L 29.78125 35.203125 
L 44.28125 54.6875 
z
" id="DejaVuSans-120"/>
     <path d="M 52 44.1875 
Q 55.375 50.25 60.0625 53.125 
Q 64.75 56 71.09375 56 
Q 79.640625 56 84.28125 50.015625 
Q 88.921875 44.046875 88.921875 33.015625 
L 88.921875 0 
L 79.890625 0 
L 79.890625 32.71875 
Q 79.890625 40.578125 77.09375 44.375 
Q 74.3125 48.1875 68.609375 48.1875 
Q 61.625 48.1875 57.5625 43.546875 
Q 53.515625 38.921875 53.515625 30.90625 
L 53.515625 0 
L 44.484375 0 
L 44.484375 32.71875 
Q 44.484375 40.625 41.703125 44.40625 
Q 38.921875 48.1875 33.109375 48.1875 
Q 26.21875 48.1875 22.15625 43.53125 
Q 18.109375 38.875 18.109375 30.90625 
L 18.109375 0 
L 9.078125 0 
L 9.078125 54.6875 
L 18.109375 54.6875 
L 18.109375 46.1875 
Q 21.1875 51.21875 25.484375 53.609375 
Q 29.78125 56 35.6875 56 
Q 41.65625 56 45.828125 52.96875 
Q 50 49.953125 52 44.1875 
z
" id="DejaVuSans-109"/>
     <path d="M 18.109375 8.203125 
L 18.109375 -20.796875 
L 9.078125 -20.796875 
L 9.078125 54.6875 
L 18.109375 54.6875 
L 18.109375 46.390625 
Q 20.953125 51.265625 25.265625 53.625 
Q 29.59375 56 35.59375 56 
Q 45.5625 56 51.78125 48.09375 
Q 58.015625 40.1875 58.015625 27.296875 
Q 58.015625 14.40625 51.78125 6.484375 
Q 45.5625 -1.421875 35.59375 -1.421875 
Q 29.59375 -1.421875 25.265625 0.953125 
Q 20.953125 3.328125 18.109375 8.203125 
z
M 48.6875 27.296875 
Q 48.6875 37.203125 44.609375 42.84375 
Q 40.53125 48.484375 33.40625 48.484375 
Q 26.265625 48.484375 22.1875 42.84375 
Q 18.109375 37.203125 18.109375 27.296875 
Q 18.109375 17.390625 22.1875 11.75 
Q 26.265625 6.109375 33.40625 6.109375 
Q 40.53125 6.109375 44.609375 11.75 
Q 48.6875 17.390625 48.6875 27.296875 
z
" id="DejaVuSans-112"/>
     <path d="M 9.421875 75.984375 
L 18.40625 75.984375 
L 18.40625 0 
L 9.421875 0 
z
" id="DejaVuSans-108"/>
     <path d="M 41.109375 46.296875 
Q 39.59375 47.171875 37.8125 47.578125 
Q 36.03125 48 33.890625 48 
Q 26.265625 48 22.1875 43.046875 
Q 18.109375 38.09375 18.109375 28.8125 
L 18.109375 0 
L 9.078125 0 
L 9.078125 54.6875 
L 18.109375 54.6875 
L 18.109375 46.1875 
Q 20.953125 51.171875 25.484375 53.578125 
Q 30.03125 56 36.53125 56 
Q 37.453125 56 38.578125 55.875 
Q 39.703125 55.765625 41.0625 55.515625 
z
" id="DejaVuSans-114"/>
     <path d="M 32.171875 -5.078125 
Q 28.375 -14.84375 24.75 -17.8125 
Q 21.140625 -20.796875 15.09375 -20.796875 
L 7.90625 -20.796875 
L 7.90625 -13.28125 
L 13.1875 -13.28125 
Q 16.890625 -13.28125 18.9375 -11.515625 
Q 21 -9.765625 23.484375 -3.21875 
L 25.09375 0.875 
L 2.984375 54.6875 
L 12.5 54.6875 
L 29.59375 11.921875 
L 46.6875 54.6875 
L 56.203125 54.6875 
z
" id="DejaVuSans-121"/>
     <path d="M 28.609375 0 
L 0.78125 72.90625 
L 11.078125 72.90625 
L 34.1875 11.53125 
L 57.328125 72.90625 
L 67.578125 72.90625 
L 39.796875 0 
z
" id="DejaVuSans-86"/>
     <path d="M 5.515625 54.6875 
L 48.1875 54.6875 
L 48.1875 46.484375 
L 14.40625 7.171875 
L 48.1875 7.171875 
L 48.1875 0 
L 4.296875 0 
L 4.296875 8.203125 
L 38.09375 47.515625 
L 5.515625 47.515625 
z
" id="DejaVuSans-122"/>
     <path d="M 30.609375 48.390625 
Q 23.390625 48.390625 19.1875 42.75 
Q 14.984375 37.109375 14.984375 27.296875 
Q 14.984375 17.484375 19.15625 11.84375 
Q 23.34375 6.203125 30.609375 6.203125 
Q 37.796875 6.203125 41.984375 11.859375 
Q 46.1875 17.53125 46.1875 27.296875 
Q 46.1875 37.015625 41.984375 42.703125 
Q 37.796875 48.390625 30.609375 48.390625 
z
M 30.609375 56 
Q 42.328125 56 49.015625 48.375 
Q 55.71875 40.765625 55.71875 27.296875 
Q 55.71875 13.875 49.015625 6.21875 
Q 42.328125 -1.421875 30.609375 -1.421875 
Q 18.84375 -1.421875 12.171875 6.21875 
Q 5.515625 13.875 5.515625 27.296875 
Q 5.515625 40.765625 12.171875 48.375 
Q 18.84375 56 30.609375 56 
z
" id="DejaVuSans-111"/>
     <path d="M 37.109375 75.984375 
L 37.109375 68.5 
L 28.515625 68.5 
Q 23.6875 68.5 21.796875 66.546875 
Q 19.921875 64.59375 19.921875 59.515625 
L 19.921875 54.6875 
L 34.71875 54.6875 
L 34.71875 47.703125 
L 19.921875 47.703125 
L 19.921875 0 
L 10.890625 0 
L 10.890625 47.703125 
L 2.296875 47.703125 
L 2.296875 54.6875 
L 10.890625 54.6875 
L 10.890625 58.5 
Q 10.890625 67.625 15.140625 71.796875 
Q 19.390625 75.984375 28.609375 75.984375 
z
" id="DejaVuSans-102"/>
     <path d="M 9.8125 72.90625 
L 51.703125 72.90625 
L 51.703125 64.59375 
L 19.671875 64.59375 
L 19.671875 43.109375 
L 48.578125 43.109375 
L 48.578125 34.8125 
L 19.671875 34.8125 
L 19.671875 0 
L 9.8125 0 
z
" id="DejaVuSans-70"/>
    </defs>
    <g transform="translate(151.684 20.88)scale(0.12 -0.12)">
     <use transform="translate(0 0.015625)" xlink:href="#DejaVuSans-69"/>
     <use transform="translate(63.183594 0.015625)" xlink:href="#DejaVuSans-120"/>
     <use transform="translate(122.363281 0.015625)" xlink:href="#DejaVuSans-101"/>
     <use transform="translate(183.886719 0.015625)" xlink:href="#DejaVuSans-109"/>
     <use transform="translate(281.298828 0.015625)" xlink:href="#DejaVuSans-112"/>
     <use transform="translate(344.775391 0.015625)" xlink:href="#DejaVuSans-108"/>
     <use transform="translate(372.558594 0.015625)" xlink:href="#DejaVuSans-97"/>
     <use transform="translate(433.837891 0.015625)" xlink:href="#DejaVuSans-114"/>
     <use transform="translate(474.951172 0.015625)" xlink:href="#DejaVuSans-121"/>
     <use transform="translate(534.130859 0.015625)" xlink:href="#DejaVuSans-32"/>
     <use transform="translate(565.917969 0.015625)" xlink:href="#DejaVuSans-86"/>
     <use transform="translate(634.326172 0.015625)" xlink:href="#DejaVuSans-105"/>
     <use transform="translate(662.109375 0.015625)" xlink:href="#DejaVuSans-115"/>
     <use transform="translate(714.208984 0.015625)" xlink:href="#DejaVuSans-117"/>
     <use transform="translate(777.587891 0.015625)" xlink:href="#DejaVuSans-97"/>
     <use transform="translate(838.867188 0.015625)" xlink:href="#DejaVuSans-108"/>
     <use transform="translate(866.650391 0.015625)" xlink:href="#DejaVuSans-105"/>
     <use transform="translate(894.433594 0.015625)" xlink:href="#DejaVuSans-122"/>
     <use transform="translate(946.923828 0.015625)" xlink:href="#DejaVuSans-97"/>
     <use transform="translate(1008.203125 0.015625)" xlink:href="#DejaVuSans-116"/>
     <use transform="translate(1047.412109 0.015625)" xlink:href="#DejaVuSans-105"/>
     <use transform="translate(1075.195312 0.015625)" xlink:href="#DejaVuSans-111"/>
     <use transform="translate(1136.376953 0.015625)" xlink:href="#DejaVuSans-110"/>
     <use transform="translate(1199.755859 0.015625)" xlink:href="#DejaVuSans-32"/>
     <use transform="translate(1231.542969 0.015625)" xlink:href="#DejaVuSans-111"/>
     <use transform="translate(1292.724609 0.015625)" xlink:href="#DejaVuSans-102"/>
     <use transform="translate(1327.929688 0.015625)" xlink:href="#DejaVuSans-32"/>
     <use transform="translate(1359.716797 0.015625)" xlink:href="#DejaVuSans-Oblique-71"/>
     <use transform="translate(1437.207031 -16.390625)scale(0.7)" xlink:href="#DejaVuSans-50"/>
     <use transform="translate(1484.477539 0.015625)" xlink:href="#DejaVuSans-32"/>
     <use transform="translate(1516.264648 0.015625)" xlink:href="#DejaVuSans-70"/>
     <use transform="translate(1573.78418 0.015625)" xlink:href="#DejaVuSans-117"/>
     <use transform="translate(1637.163086 0.015625)" xlink:href="#DejaVuSans-110"/>
     <use transform="translate(1700.541992 0.015625)" xlink:href="#DejaVuSans-99"/>
     <use transform="translate(1755.522461 0.015625)" xlink:href="#DejaVuSans-116"/>
     <use transform="translate(1794.731445 0.015625)" xlink:href="#DejaVuSans-105"/>
     <use transform="translate(1822.514648 0.015625)" xlink:href="#DejaVuSans-111"/>
     <use transform="translate(1883.696289 0.015625)" xlink:href="#DejaVuSans-110"/>
     <use transform="translate(1947.075195 0.015625)" xlink:href="#DejaVuSans-115"/>
    </g>
   </g>
   <g id="legend_1">
    <g id="patch_7">
     <path d="M 425.571875 196.339375 
L 486.2 196.339375 
Q 488.2 196.339375 488.2 194.339375 
L 488.2 33.88 
Q 488.2 31.88 486.2 31.88 
L 425.571875 31.88 
Q 423.571875 31.88 423.571875 33.88 
L 423.571875 194.339375 
Q 423.571875 196.339375 425.571875 196.339375 
z
" style="fill:#ffffff;opacity:0.8;stroke:#cccccc;stroke-linejoin:miter;"/>
    </g>
    <g id="text_19">
     <!-- $R_\mathrm{s}$ Value: -->
     <defs>
      <path d="M 11.71875 12.40625 
L 22.015625 12.40625 
L 22.015625 0 
L 11.71875 0 
z
M 11.71875 51.703125 
L 22.015625 51.703125 
L 22.015625 39.3125 
L 11.71875 39.3125 
z
" id="DejaVuSans-58"/>
     </defs>
     <g transform="translate(433.035937 43.478438)scale(0.1 -0.1)">
      <use transform="translate(0 0.015625)" xlink:href="#DejaVuSans-Oblique-82"/>
      <use transform="translate(69.482422 -16.390625)scale(0.7)" xlink:href="#DejaVuSans-115"/>
      <use transform="translate(108.686523 0.015625)" xlink:href="#DejaVuSans-32"/>
      <use transform="translate(140.473633 0.015625)" xlink:href="#DejaVuSans-86"/>
      <use transform="translate(208.881836 0.015625)" xlink:href="#DejaVuSans-97"/>
      <use transform="translate(270.161133 0.015625)" xlink:href="#DejaVuSans-108"/>
      <use transform="translate(297.944336 0.015625)" xlink:href="#DejaVuSans-117"/>
      <use transform="translate(361.323242 0.015625)" xlink:href="#DejaVuSans-101"/>
      <use transform="translate(422.84668 0.015625)" xlink:href="#DejaVuSans-58"/>
     </g>
    </g>
    <g id="line2d_26">
     <path d="M 427.571875 54.656563 
L 447.571875 54.656563 
" style="fill:none;stroke:#1f77b4;stroke-linecap:square;stroke-width:1.5;"/>
    </g>
    <g id="line2d_27"/>
    <g id="text_20">
     <!-- 0.000 -->
     <g transform="translate(455.571875 58.156563)scale(0.1 -0.1)">
      <use xlink:href="#DejaVuSans-48"/>
      <use x="63.623047" xlink:href="#DejaVuSans-46"/>
      <use x="95.410156" xlink:href="#DejaVuSans-48"/>
      <use x="159.033203" xlink:href="#DejaVuSans-48"/>
      <use x="222.65625" xlink:href="#DejaVuSans-48"/>
     </g>
    </g>
    <g id="line2d_28">
     <path d="M 427.571875 69.334688 
L 447.571875 69.334688 
" style="fill:none;stroke:#ff7f0e;stroke-linecap:square;stroke-width:1.5;"/>
    </g>
    <g id="line2d_29"/>
    <g id="text_21">
     <!-- 0.444 -->
     <g transform="translate(455.571875 72.834688)scale(0.1 -0.1)">
      <use xlink:href="#DejaVuSans-48"/>
      <use x="63.623047" xlink:href="#DejaVuSans-46"/>
      <use x="95.410156" xlink:href="#DejaVuSans-52"/>
      <use x="159.033203" xlink:href="#DejaVuSans-52"/>
      <use x="222.65625" xlink:href="#DejaVuSans-52"/>
     </g>
    </g>
    <g id="line2d_30">
     <path d="M 427.571875 84.012813 
L 447.571875 84.012813 
" style="fill:none;stroke:#2ca02c;stroke-linecap:square;stroke-width:1.5;"/>
    </g>
    <g id="line2d_31"/>
    <g id="text_22">
     <!-- 0.889 -->
     <defs>
      <path d="M 10.984375 1.515625 
L 10.984375 10.5 
Q 14.703125 8.734375 18.5 7.8125 
Q 22.3125 6.890625 25.984375 6.890625 
Q 35.75 6.890625 40.890625 13.453125 
Q 46.046875 20.015625 46.78125 33.40625 
Q 43.953125 29.203125 39.59375 26.953125 
Q 35.25 24.703125 29.984375 24.703125 
Q 19.046875 24.703125 12.671875 31.3125 
Q 6.296875 37.9375 6.296875 49.421875 
Q 6.296875 60.640625 12.9375 67.421875 
Q 19.578125 74.21875 30.609375 74.21875 
Q 43.265625 74.21875 49.921875 64.515625 
Q 56.59375 54.828125 56.59375 36.375 
Q 56.59375 19.140625 48.40625 8.859375 
Q 40.234375 -1.421875 26.421875 -1.421875 
Q 22.703125 -1.421875 18.890625 -0.6875 
Q 15.09375 0.046875 10.984375 1.515625 
z
M 30.609375 32.421875 
Q 37.25 32.421875 41.125 36.953125 
Q 45.015625 41.5 45.015625 49.421875 
Q 45.015625 57.28125 41.125 61.84375 
Q 37.25 66.40625 30.609375 66.40625 
Q 23.96875 66.40625 20.09375 61.84375 
Q 16.21875 57.28125 16.21875 49.421875 
Q 16.21875 41.5 20.09375 36.953125 
Q 23.96875 32.421875 30.609375 32.421875 
z
" id="DejaVuSans-57"/>
     </defs>
     <g transform="translate(455.571875 87.512813)scale(0.1 -0.1)">
      <use xlink:href="#DejaVuSans-48"/>
      <use x="63.623047" xlink:href="#DejaVuSans-46"/>
      <use x="95.410156" xlink:href="#DejaVuSans-56"/>
      <use x="159.033203" xlink:href="#DejaVuSans-56"/>
      <use x="222.65625" xlink:href="#DejaVuSans-57"/>
     </g>
    </g>
    <g id="line2d_32">
     <path d="M 427.571875 98.690938 
L 447.571875 98.690938 
" style="fill:none;stroke:#d62728;stroke-linecap:square;stroke-width:1.5;"/>
    </g>
    <g id="line2d_33"/>
    <g id="text_23">
     <!-- 1.333 -->
     <g transform="translate(455.571875 102.190938)scale(0.1 -0.1)">
      <use xlink:href="#DejaVuSans-49"/>
      <use x="63.623047" xlink:href="#DejaVuSans-46"/>
      <use x="95.410156" xlink:href="#DejaVuSans-51"/>
      <use x="159.033203" xlink:href="#DejaVuSans-51"/>
      <use x="222.65625" xlink:href="#DejaVuSans-51"/>
     </g>
    </g>
    <g id="line2d_34">
     <path d="M 427.571875 113.369063 
L 447.571875 113.369063 
" style="fill:none;stroke:#9467bd;stroke-linecap:square;stroke-width:1.5;"/>
    </g>
    <g id="line2d_35"/>
    <g id="text_24">
     <!-- 1.778 -->
     <defs>
      <path d="M 8.203125 72.90625 
L 55.078125 72.90625 
L 55.078125 68.703125 
L 28.609375 0 
L 18.3125 0 
L 43.21875 64.59375 
L 8.203125 64.59375 
z
" id="DejaVuSans-55"/>
     </defs>
     <g transform="translate(455.571875 116.869063)scale(0.1 -0.1)">
      <use xlink:href="#DejaVuSans-49"/>
      <use x="63.623047" xlink:href="#DejaVuSans-46"/>
      <use x="95.410156" xlink:href="#DejaVuSans-55"/>
      <use x="159.033203" xlink:href="#DejaVuSans-55"/>
      <use x="222.65625" xlink:href="#DejaVuSans-56"/>
     </g>
    </g>
    <g id="line2d_36">
     <path d="M 427.571875 128.047188 
L 447.571875 128.047188 
" style="fill:none;stroke:#8c564b;stroke-linecap:square;stroke-width:1.5;"/>
    </g>
    <g id="line2d_37"/>
    <g id="text_25">
     <!-- 2.222 -->
     <g transform="translate(455.571875 131.547188)scale(0.1 -0.1)">
      <use xlink:href="#DejaVuSans-50"/>
      <use x="63.623047" xlink:href="#DejaVuSans-46"/>
      <use x="95.410156" xlink:href="#DejaVuSans-50"/>
      <use x="159.033203" xlink:href="#DejaVuSans-50"/>
      <use x="222.65625" xlink:href="#DejaVuSans-50"/>
     </g>
    </g>
    <g id="line2d_38">
     <path d="M 427.571875 142.725313 
L 447.571875 142.725313 
" style="fill:none;stroke:#e377c2;stroke-linecap:square;stroke-width:1.5;"/>
    </g>
    <g id="line2d_39"/>
    <g id="text_26">
     <!-- 2.667 -->
     <g transform="translate(455.571875 146.225313)scale(0.1 -0.1)">
      <use xlink:href="#DejaVuSans-50"/>
      <use x="63.623047" xlink:href="#DejaVuSans-46"/>
      <use x="95.410156" xlink:href="#DejaVuSans-54"/>
      <use x="159.033203" xlink:href="#DejaVuSans-54"/>
      <use x="222.65625" xlink:href="#DejaVuSans-55"/>
     </g>
    </g>
    <g id="line2d_40">
     <path d="M 427.571875 157.403438 
L 447.571875 157.403438 
" style="fill:none;stroke:#7f7f7f;stroke-linecap:square;stroke-width:1.5;"/>
    </g>
    <g id="line2d_41"/>
    <g id="text_27">
     <!-- 3.111 -->
     <g transform="translate(455.571875 160.903438)scale(0.1 -0.1)">
      <use xlink:href="#DejaVuSans-51"/>
      <use x="63.623047" xlink:href="#DejaVuSans-46"/>
      <use x="95.410156" xlink:href="#DejaVuSans-49"/>
      <use x="159.033203" xlink:href="#DejaVuSans-49"/>
      <use x="222.65625" xlink:href="#DejaVuSans-49"/>
     </g>
    </g>
    <g id="line2d_42">
     <path d="M 427.571875 172.081563 
L 447.571875 172.081563 
" style="fill:none;stroke:#bcbd22;stroke-linecap:square;stroke-width:1.5;"/>
    </g>
    <g id="line2d_43"/>
    <g id="text_28">
     <!-- 3.556 -->
     <g transform="translate(455.571875 175.581563)scale(0.1 -0.1)">
      <use xlink:href="#DejaVuSans-51"/>
      <use x="63.623047" xlink:href="#DejaVuSans-46"/>
      <use x="95.410156" xlink:href="#DejaVuSans-53"/>
      <use x="159.033203" xlink:href="#DejaVuSans-53"/>
      <use x="222.65625" xlink:href="#DejaVuSans-54"/>
     </g>
    </g>
    <g id="line2d_44">
     <path d="M 427.571875 186.759688 
L 447.571875 186.759688 
" style="fill:none;stroke:#17becf;stroke-linecap:square;stroke-width:1.5;"/>
    </g>
    <g id="line2d_45"/>
    <g id="text_29">
     <!-- 4.000 -->
     <g transform="translate(455.571875 190.259688)scale(0.1 -0.1)">
      <use xlink:href="#DejaVuSans-52"/>
      <use x="63.623047" xlink:href="#DejaVuSans-46"/>
      <use x="95.410156" xlink:href="#DejaVuSans-48"/>
      <use x="159.033203" xlink:href="#DejaVuSans-48"/>
      <use x="222.65625" xlink:href="#DejaVuSans-48"/>
     </g>
    </g>
   </g>
  </g>
 </g>
 <defs>
  <clipPath id="pb3449043be">
   <rect height="289.5175" width="443.032" x="50.168" y="26.88"/>
  </clipPath>
 </defs>
</svg>
